<?xml version="1.0" encoding="UTF-8"?>
<svg width="20px" height="20px" viewBox="0 0 20 20" version="1.1" xmlns="http://www.w3.org/2000/svg" xmlns:xlink="http://www.w3.org/1999/xlink">
    <title>icon/20/mail</title>
    <g id="icon/20/mail" stroke="none" stroke-width="1" fill="none" fill-rule="evenodd">
        <rect id="Rectangle" x="0" y="0" width="20" height="20"></rect>
        <g id="Mail" transform="translate(3.500000, 5.250000)" fill="#000000" stroke="#000100" stroke-width="0.1">
            <path d="M12.1136364,0 C12.5705265,0 12.9466763,0.344126232 12.9947989,0.786210867 L13,0.882352941 L13,9.11764706 C13,9.57246979 12.6543096,9.94691754 12.2102154,9.99482247 L12.1136364,10 L0.886363636,10 C0.429473525,10 0.0533237427,9.65587377 0.00520106114,9.21378913 L0,9.11764706 L0,0.882352941 C0,0.427530206 0.345690442,0.0530824588 0.789784553,0.00517752693 L0.886363636,0 L12.1136364,0 Z M8.15004249,5.74972934 L6.73636364,6.82352941 C6.6012987,6.92436975 6.42282004,6.93877551 6.27535118,6.8667467 L6.20454545,6.82352941 L4.82746342,5.78725641 L4.67113636,5.94901961 L1.51272727,9.11764706 L11.4872727,9.11764706 L8.32886364,5.94901961 C8.2927054,5.91039088 8.23309835,5.84396079 8.15004249,5.74972934 Z M0.886363636,2.83235294 L0.886363636,8.49411765 L4.04477273,5.3254902 C4.0577075,5.31349199 4.08502104,5.28571929 4.12671334,5.24217209 L0.886363636,2.83235294 Z M12.1077273,2.82941176 L8.87078189,5.24217209 L8.95522727,5.3254902 L12.1136364,8.49411765 L12.1077273,2.82941176 Z M12.1136364,0.882352941 L0.886363636,0.882352941 L0.886363636,1.72941176 L6.47931818,5.92058824 L12.1136364,1.72941176 L12.1136364,0.882352941 Z" id="Shape"></path>
        </g>
    </g>
</svg>