<?xml version="1.0" encoding="UTF-8"?>
<svg width="20px" height="20px" viewBox="0 0 20 20" version="1.1" xmlns="http://www.w3.org/2000/svg" xmlns:xlink="http://www.w3.org/1999/xlink">
    <title>icon/20/pattern</title>
    <g id="icon/20/pattern" stroke="none" stroke-width="1" fill="none" fill-rule="evenodd">
        <rect id="Rectangle" x="0" y="0" width="20" height="20"></rect>
        <g id="Group" transform="translate(3.000000, 3.000000)" stroke="#222222">
            <path d="M2,0 C3.1045695,0 4,0.8954305 4,2 C4,3.1045695 3.1045695,4 2,4 C0.8954305,4 0,3.1045695 0,2 C0,0.8954305 0.8954305,0 2,0 Z M2,1 C1.44771525,1 1,1.44771525 1,2 C1,2.55228475 1.44771525,3 2,3 C2.55228475,3 3,2.55228475 3,2 C3,1.44771525 2.55228475,1 2,1 Z" id="Oval-Copy" stroke-width="0.2" fill="#222222" fill-rule="nonzero"></path>
            <path d="M2,5 C3.1045695,5 4,5.8954305 4,7 C4,8.1045695 3.1045695,9 2,9 C0.8954305,9 0,8.1045695 0,7 C0,5.8954305 0.8954305,5 2,5 Z M2,6 C1.44771525,6 1,6.44771525 1,7 C1,7.55228475 1.44771525,8 2,8 C2.55228475,8 3,7.55228475 3,7 C3,6.44771525 2.55228475,6 2,6 Z" id="Oval-Copy-4" stroke-width="0.2" fill="#222222" fill-rule="nonzero"></path>
            <path d="M2,10 C3.1045695,10 4,10.8954305 4,12 C4,13.1045695 3.1045695,14 2,14 C0.8954305,14 0,13.1045695 0,12 C0,10.8954305 0.8954305,10 2,10 Z M2,11 C1.44771525,11 1,11.4477153 1,12 C1,12.5522847 1.44771525,13 2,13 C2.55228475,13 3,12.5522847 3,12 C3,11.4477153 2.55228475,11 2,11 Z" id="Oval-Copy-7" stroke-width="0.2" fill="#222222" fill-rule="nonzero"></path>
            <path d="M7,0 C8.1045695,0 9,0.8954305 9,2 C9,3.1045695 8.1045695,4 7,4 C5.8954305,4 5,3.1045695 5,2 C5,0.8954305 5.8954305,0 7,0 Z M7,1 C6.44771525,1 6,1.44771525 6,2 C6,2.55228475 6.44771525,3 7,3 C7.55228475,3 8,2.55228475 8,2 C8,1.44771525 7.55228475,1 7,1 Z" id="Oval-Copy-2" stroke-width="0.2" fill="#222222" fill-rule="nonzero"></path>
            <path d="M7,5 C8.1045695,5 9,5.8954305 9,7 C9,8.1045695 8.1045695,9 7,9 C5.8954305,9 5,8.1045695 5,7 C5,5.8954305 5.8954305,5 7,5 Z M7,6 C6.44771525,6 6,6.44771525 6,7 C6,7.55228475 6.44771525,8 7,8 C7.55228475,8 8,7.55228475 8,7 C8,6.44771525 7.55228475,6 7,6 Z" id="Oval-Copy-5" stroke-width="0.2" fill="#222222" fill-rule="nonzero"></path>
            <path d="M7,10 C8.1045695,10 9,10.8954305 9,12 C9,13.1045695 8.1045695,14 7,14 C5.8954305,14 5,13.1045695 5,12 C5,10.8954305 5.8954305,10 7,10 Z M7,11 C6.44771525,11 6,11.4477153 6,12 C6,12.5522847 6.44771525,13 7,13 C7.55228475,13 8,12.5522847 8,12 C8,11.4477153 7.55228475,11 7,11 Z" id="Oval-Copy-8" stroke-width="0.2" fill="#222222" fill-rule="nonzero"></path>
            <path d="M12,0 C13.1045695,0 14,0.8954305 14,2 C14,3.1045695 13.1045695,4 12,4 C10.8954305,4 10,3.1045695 10,2 C10,0.8954305 10.8954305,0 12,0 Z M12,1 C11.4477153,1 11,1.44771525 11,2 C11,2.55228475 11.4477153,3 12,3 C12.5522847,3 13,2.55228475 13,2 C13,1.44771525 12.5522847,1 12,1 Z" id="Oval-Copy-3" stroke-width="0.2" fill="#222222" fill-rule="nonzero"></path>
            <path d="M12,5 C13.1045695,5 14,5.8954305 14,7 C14,8.1045695 13.1045695,9 12,9 C10.8954305,9 10,8.1045695 10,7 C10,5.8954305 10.8954305,5 12,5 Z M12,6 C11.4477153,6 11,6.44771525 11,7 C11,7.55228475 11.4477153,8 12,8 C12.5522847,8 13,7.55228475 13,7 C13,6.44771525 12.5522847,6 12,6 Z" id="Oval-Copy-6" stroke-width="0.2" fill="#222222" fill-rule="nonzero"></path>
            <path d="M12,10 C13.1045695,10 14,10.8954305 14,12 C14,13.1045695 13.1045695,14 12,14 C10.8954305,14 10,13.1045695 10,12 C10,10.8954305 10.8954305,10 12,10 Z M12,11 C11.4477153,11 11,11.4477153 11,12 C11,12.5522847 11.4477153,13 12,13 C12.5522847,13 13,12.5522847 13,12 C13,11.4477153 12.5522847,11 12,11 Z" id="Oval-Copy-9" stroke-width="0.2" fill="#222222" fill-rule="nonzero"></path>
            <line x1="2" y1="12" x2="12" y2="2" id="Path-3" stroke-width="1.5" opacity="0.800000012" stroke-linecap="round" stroke-linejoin="round"></line>
        </g>
    </g>
</svg>